<?xml version="1.0" encoding="UTF-8"?>
<svg xmlns="http://www.w3.org/2000/svg" xmlns:xlink="http://www.w3.org/1999/xlink" viewBox="0 0 250 250" width="250px" height="250px">
<g id="surface23441912">
<path style=" stroke:none;fill-rule:nonzero;fill:rgb(100%,100%,100%);fill-opacity:1;" d="M 125 15 C 64.25 15 15 64.25 15 125 C 15 180.148438 55.625 225.683594 108.558594 233.640625 L 108.558594 154.15625 L 81.34375 154.15625 L 81.34375 125.238281 L 108.558594 125.238281 L 108.558594 106 C 108.558594 74.144531 124.078125 60.160156 150.554688 60.160156 C 163.234375 60.160156 169.941406 61.101562 173.113281 61.53125 L 173.113281 86.769531 L 155.054688 86.769531 C 143.816406 86.769531 139.890625 97.425781 139.890625 109.433594 L 139.890625 125.238281 L 172.828125 125.238281 L 168.359375 154.15625 L 139.890625 154.15625 L 139.890625 233.875 C 193.578125 226.589844 235 180.683594 235 125 C 235 64.25 185.75 15 125 15 Z M 125 15 "/>
</g>
</svg>
